# .PCD v0.7 - Point Cloud Data file format
VERSION 0.7
FIELDS x y z rgb normal_x normal_y normal_z curvature
SIZE 4 4 4 4 4 4 4 4
TYPE F F F U F F F F
COUNT 1 1 1 1 1 1 1 1
WIDTH 176
HEIGHT 1
VIEWPOINT 0 0 0 1 0 0 0
POINTS 176
DATA ascii
-0.069845557 -0.11688203 0.44424802 9536368 0.44911984 0.070506468 0.89068526 0.0068088816
-0.068377264 -0.11659633 0.44345856 9536368 0.49131265 0.083571143 0.8669647 0.0065571289
-0.067586593 -0.11665893 0.44300437 9536368 0.51712108 0.082140215 0.85196173 0.0064298469
-0.071390308 -0.11607425 0.44486535 9471090 0.41578719 0.086177669 0.90536976 0.0053425976
-0.069886334 -0.11575976 0.44417989 9471090 0.44428769 0.098655045 0.89043564 0.0065980884
-0.068426326 -0.11548038 0.44337609 9471088 0.48413229 0.1171383 0.86711854 0.0061036432
-0.067645192 -0.11553428 0.44293135 9405295 0.50442135 0.12354457 0.85457349 0.0055810111
-0.066876143 -0.11558025 0.44248271 9471088 0.51376271 0.15569152 0.84368718 0.0047661341
-0.072329879 -0.1148708 0.44519946 9471090 0.41775468 0.099735335 0.90306914 0.0048159915
-0.071445078 -0.11495441 0.44477743 9405297 0.4180319 0.099879317 0.90292495 0.0051026749
-0.069957808 -0.11463992 0.44407868 9405297 0.43777564 0.12711227 0.89005333 0.006066001
-0.067748755 -0.11441372 0.44280401 9405297 0.50812459 0.13983667 0.84985596 0.0049426793
-0.066445023 -0.11415836 0.44181815 9471090 0.53994101 0.15885319 0.82657689 0.0052145785
-0.065249041 -0.11392976 0.44067422 9602676 0.56154162 0.16105708 0.81162286 0.0087156733
-0.05673188 -0.11169378 0.43396923 9405295 0.18869852 0.011956173 0.98196226 0.027525984
-0.055738602 -0.11173319 0.43375972 9471088 0.10701521 0.011508584 0.99419075 0.030059122
-0.072398327 -0.11375593 0.44508129 9471090 0.41066021 0.11384771 0.90465289 0.0048302743
-0.071517147 -0.11383569 0.44467273 9405297 0.40800536 0.12296475 0.90466088 0.0050692647
-0.070056848 -0.11352466 0.44394121 9405297 0.43189391 0.14347237 0.89043999 0.0058830027
-0.068624355 -0.11324694 0.44312364 9405297 0.48449224 0.14705926 0.86234611 0.0049029691
-0.067862615 -0.11329412 0.44266358 9339504 0.50966793 0.14564252 0.84795451 0.0044190404
-0.06658347 -0.11305332 0.44162488 9405297 0.54818851 0.15718099 0.82145208 0.0057945815
-0.065390468 -0.11282962 0.44045568 9471090 0.57595521 0.14195478 0.80506176 0.0092412699
-0.059595682 -0.11118773 0.435193 9405295 0.40282416 0.0090352278 0.91523278 0.020900875
-0.0582105 -0.11089607 0.43447235 9405295 0.30656007 0.0048779985 0.95183879 0.023666674
-0.056735765 -0.11059225 0.43396613 9405295 0.18926345 0.0092753973 0.98188251 0.028090687
-0.055748224 -0.11063531 0.43374661 9405295 0.10661459 -0.00050848292 0.99430031 0.0302835
-0.055258904 -0.11098741 0.43369883 9404782 0.069440819 0.00041701767 0.99758601 0.0302835
-0.054174837 -0.1109881 0.43362111 9404782 -0.028063485 -0.0047601378 0.99959481 0.032839883
-0.072471969 -0.11264196 0.44495967 9471090 0.41398814 0.12099666 0.90220487 0.0045546703
-0.071601607 -0.11272231 0.44454071 9405297 0.40953922 0.13687469 0.90196615 0.0045978562
-0.070168942 -0.11240583 0.44379869 9405297 0.42693022 0.15223022 0.891379 0.0058250749
-0.068742208 -0.11213025 0.44297597 9405297 0.48156121 0.15341824 0.86287987 0.0045172148
-0.067434758 -0.11187432 0.44200352 9405297 0.53723896 0.14874655 0.83021009 0.0047110757
-0.066716284 -0.11194267 0.44143459 9405297 0.5584166 0.14762609 0.81631941 0.0063776956
-0.065506011 -0.11172094 0.44027087 9471090 0.58568412 0.12397922 0.80100143 0.0098181078
-0.064328924 -0.1115234 0.43902302 9405297 0.58302903 0.10045189 0.80621743 0.01392277
-0.059605427 -0.11007825 0.4351742 9405297 0.40273488 0.010390297 0.91525769 0.021432741
-0.058212269 -0.10978739 0.43446937 9339504 0.3065092 0.0064304736 0.951846 0.0243007
-0.056741137 -0.10949084 0.4339616 9339504 0.19014661 0.0038017025 0.98174834 0.028539926
-0.055744879 -0.1095273 0.43375373 9404784 0.10688539 -0.0054388358 0.9942565 0.0302835
-0.055255767 -0.10987689 0.43370554 9404782 0.069771513 -0.0040347618 0.99755484 0.0302835
-0.054168224 -0.10987432 0.43363029 9404782 -0.02653097 -0.0072295829 0.99962187 0.033019342
-0.053021006 -0.10986428 0.4336955 9338989 -0.11246602 -0.0073273396 0.99362856 0.033357315
-0.051822867 -0.10985073 0.43390352 9338989 -0.20967324 -0.015672943 0.97764587 0.032788645
-0.071119353 -0.11124 0.44403982 9405297 0.3999885 0.15229844 0.90377784 0.0056064473
-0.069650672 -0.11096843 0.44325647 9405297 0.45339146 0.15573618 0.87760037 0.0046120854
-0.068264551 -0.11071709 0.44237432 9405297 0.5037756 0.15321934 0.85013765 0.0041522384
-0.067550436 -0.11075883 0.44185117 9405297 0.54357511 0.13873899 0.82781494 0.0049729869
-0.066311516 -0.11051945 0.44077566 9405297 0.57780558 0.12523539 0.80650902 0.0080699511
-0.065139033 -0.11030161 0.43957847 9405297 0.59534025 0.094853103 0.7978552 0.012196684
-0.063951984 -0.11008701 0.43837875 9405297 0.58278292 0.063532203 0.81014055 0.016717441
-0.059131507 -0.10862638 0.43484434 9339504 0.37181485 0.0026271855 0.92830318 0.023892595
-0.058217905 -0.10868173 0.43445998 9339504 0.30729702 0.0036279783 0.95160675 0.025453612
-0.056748804 -0.10839856 0.43396175 9273711 0.19149826 -0.0085773831 0.98145545 0.029065723
-0.055739585 -0.1084189 0.43376502 9338991 0.10784011 -0.010526353 0.99411255 0.0302835
-0.055252649 -0.10876556 0.43370977 9338989 0.070590012 -0.0077208416 0.9974755 0.030786538
-0.054160848 -0.10876083 0.43364039 9404782 -0.025103565 -0.01061746 0.99962848 0.032951254
-0.053015523 -0.10875373 0.43370906 9338989 -0.11055792 -0.010140608 0.99381793 0.033357315
-0.051816288 -0.10874064 0.43392172 9338989 -0.20480934 -0.013805442 0.97870451 0.032788645
-0.05059671 -0.10874267 0.43427533 9273196 -0.3014217 -0.0039050232 0.95348293 0.030448254
-0.069770426 -0.10985279 0.44310576 9405297 0.45689854 0.14426531 0.87774211 0.0044847
-0.068393007 -0.10960077 0.44221574 9405297 0.49759939 0.15231003 0.85393 0.004172184
-0.067116022 -0.10934678 0.44122973 9339504 0.55245125 0.13514675 0.8225162 0.0061207502
-0.066410661 -0.10940285 0.44062957 9405297 0.57761526 0.11791538 0.80774784 0.0084105944
-0.06521368 -0.10919611 0.43944103 9339504 0.602184 0.077691644 0.79456806 0.01350566
-0.063996576 -0.10897354 0.43828949 9339504 0.58596259 0.049394961 0.80883127 0.017295193
-0.062250022 -0.10838697 0.43691275 9339504 0.52956349 0.024115425 0.84792745 0.018149843
-0.060974419 -0.10813367 0.43594688 9339504 0.48157981 0.0048584617 0.87638879 0.020218505
-0.059628505 -0.10786009 0.43512979 9339504 0.40467298 -0.00032031711 0.91446143 0.022392407
-0.05821979 -0.10757428 0.43445772 9273711 0.30796686 -0.0056809532 0.95138013 0.025929879
-0.057290714 -0.10762014 0.43409774 9273711 0.23379903 -0.013897859 0.97218561 0.02877993
-0.055741243 -0.10731918 0.4337745 9273711 0.10981322 -0.015985977 0.99382371 0.031207301
-0.055247474 -0.10765207 0.43371528 9339504 0.070881963 -0.013704069 0.99739057 0.031603396
-0.054153714 -0.10764994 0.43365717 9339504 -0.022946944 -0.014398247 0.99963301 0.032951254
-0.053005233 -0.10763957 0.43372932 9273711 -0.10903865 -0.015335614 0.99391919 0.03340666
-0.051811021 -0.10763059 0.43393633 9273711 -0.19961922 -0.012199051 0.9797976 0.032788645
-0.051112656 -0.10788008 0.43409672 9207918 -0.24284999 -0.00903368 0.97002178 0.032560129
-0.049807779 -0.1078666 0.43455061 9273709 -0.33440456 0.0071901479 0.94240218 0.028409217
-0.067764886 -0.10852068 0.44156051 9405297 0.5450294 0.12521949 0.82901329 0.0055900575
-0.066498004 -0.1082845 0.44049886 9339504 0.57433182 0.11302032 0.81078315 0.0087821344
-0.065268897 -0.10807883 0.4393408 9339504 0.60503 0.065066181 0.79353958 0.014116441
-0.064027518 -0.10786254 0.43821764 9339504 0.59014291 0.036262348 0.80648398 0.017862471
-0.062276095 -0.10727677 0.43686292 9339504 0.53507423 0.013630942 0.84469509 0.018570276
-0.060510021 -0.10668518 0.43558303 9273711 0.46094012 -0.006965857 0.88740391 0.022392407
-0.059654068 -0.10675469 0.43508044 9273711 0.40934709 -0.011763269 0.91230291 0.023892595
-0.058231011 -0.10647372 0.43444416 9273711 0.31013128 -0.019129258 0.95050126 0.027690977
-0.057284322 -0.10650947 0.43411216 9273711 0.23582292 -0.020373959 0.97158247 0.029065723
-0.056288064 -0.10653192 0.43387112 9273711 0.15393539 -0.020684769 0.98786438 0.0302835
-0.055237379 -0.10653863 0.43373424 9273711 0.072665557 -0.019470043 0.99716628 0.031831749
-0.054145303 -0.10653889 0.43367696 9339504 -0.020233847 -0.018333316 0.99962717 0.032951254
-0.052992515 -0.10652576 0.4337557 9273711 -0.10597059 -0.017515631 0.99421501 0.033124063
-0.051806904 -0.10652057 0.43394771 9273711 -0.19409148 -0.010856351 0.98092335 0.032788645
-0.050600197 -0.10652714 0.43426454 9207918 -0.27211294 0.0044298931 0.96225512 0.02872679
-0.049400873 -0.10654879 0.43466327 9273709 -0.33477107 0.030292587 0.94181246 0.025903204
-0.067328185 -0.10711423 0.44094068 9339504 0.53761059 0.13203529 0.83279139 0.0066400785
-0.066061705 -0.10687604 0.43991449 9339504 0.58922446 0.084750593 0.80351222 0.011021284
-0.065313779 -0.10695836 0.43925807 9405297 0.60638613 0.054907545 0.79327238 0.014691317
-0.064046778 -0.10674832 0.43817073 9405297 0.59502888 0.023696339 0.80335492 0.018149843
-0.06230269 -0.10616627 0.43681127 9405297 0.54283339 0.0033858137 0.83983362 0.019834928
-0.060516972 -0.10557804 0.4355731 9273711 0.46368995 -0.016024655 0.88585258 0.023862356
-0.059659936 -0.10564424 0.43506953 9273711 0.41256997 -0.021224653 0.91067863 0.025453612
-0.058745045 -0.10569286 0.43467256 9273711 0.34855434 -0.021642441 0.93703866 0.025929879
-0.057272788 -0.10539727 0.43413645 9207918 0.2379912 -0.027616702 0.97087461 0.029065723
-0.05627821 -0.10541904 0.43389031 9273711 0.15609264 -0.02713039 0.98736978 0.031207301
-0.05522709 -0.10542535 0.43374905 9273711 0.072687462 -0.025313519 0.99703348 0.031967402
-0.054130379 -0.10542422 0.43370813 9273711 -0.016803261 -0.022275668 0.99961066 0.033202168
-0.052980196 -0.10541272 0.43378147 9273198 -0.10075988 -0.016631627 0.99477178 0.032489665
-0.051803011 -0.10541024 0.4339574 9273198 -0.18909711 -0.0093028964 0.98191434 0.032560129
-0.050604828 -0.10541671 0.4342415 9273198 -0.2571069 0.0087282881 0.96634352 0.028976932
-0.049425565 -0.10544091 0.43458265 9273198 -0.31102633 0.043273143 0.94941562 0.024435293
-0.066122629 -0.1057594 0.43981814 9339504 0.58636934 0.079694435 0.80611402 0.01149848
-0.064853236 -0.10552907 0.43878815 9405297 0.60606283 0.033082042 0.79472852 0.0159826
-0.063586958 -0.10529543 0.43777049 9405297 0.58666062 0.0055448636 0.80981392 0.018524891
-0.062319309 -0.10505283 0.43677753 9405297 0.55565089 -0.01230526 0.83132464 0.021161243
-0.06053279 -0.10447348 0.43555143 9273711 0.47418925 -0.031849928 0.87984663 0.025929879
-0.059642512 -0.10452858 0.43510517 9273711 0.41609335 -0.032420848 0.90874374 0.026161013
-0.058229856 -0.10425698 0.43445832 9273711 0.31604287 -0.037538283 0.94800198 0.029065723
-0.057263847 -0.10428667 0.43415725 9273711 0.24032219 -0.035422597 0.97004664 0.030103143
-0.056265969 -0.10430618 0.4339149 9338991 0.15825306 -0.03406195 0.98681092 0.031831749
-0.055208765 -0.10431106 0.43378884 9338991 0.076748393 -0.028955393 0.99662995 0.032240722
-0.054114614 -0.10430873 0.43373668 9273198 -0.012928715 -0.023732563 0.99963474 0.033356082
-0.05297403 -0.10430261 0.43379787 9273198 -0.094981089 -0.016181758 0.99534756 0.032489665
-0.051798858 -0.10429967 0.43396714 9273198 -0.17803076 0.001235155 0.98402417 0.031027501
-0.05061119 -0.10430622 0.43422055 9273198 -0.24783313 0.013420362 0.96870977 0.028976932
-0.064871155 -0.10440909 0.43875617 9339504 0.6069324 0.026350249 0.79431647 0.016110141
-0.063599639 -0.10417824 0.43774506 9339504 0.59538025 -0.00749774 0.8034091 0.019767044
-0.062321994 -0.10393452 0.43677023 9405297 0.56209612 -0.025293201 0.82668507 0.022976695
-0.060509883 -0.10336253 0.4356029 9273711 0.47900894 -0.041798379 0.87681431 0.026535885
-0.059629127 -0.103414 0.43513361 9273711 0.41928598 -0.041560546 0.90690243 0.027067091
-0.058734801 -0.10345843 0.43467855 9338991 0.35831708 -0.044890136 0.93252009 0.029065723
-0.057257663 -0.10317739 0.43417531 9338991 0.24278846 -0.043949693 0.96908319 0.031460095
-0.056244101 -0.10319234 0.43396258 9338991 0.16374227 -0.037146505 0.98580354 0.032177079
-0.055194262 -0.10319747 0.43381774 9338991 0.079523593 -0.030627601 0.99636233 0.032825205
-0.054099914 -0.1031942 0.43376219 9338991 -0.0073423437 -0.022859804 0.99971169 0.032847147
-0.051801864 -0.10318932 0.43395635 9273198 -0.16899024 0.0060384432 0.98559922 0.030121801
-0.050626971 -0.10319714 0.43418083 9207405 -0.23531118 0.027126772 0.97154146 0.027813217
-0.063596904 -0.10305583 0.4377479 9273711 0.6087535 -0.024496034 0.79298115 0.021924097
-0.062313851 -0.10281311 0.4367826 9339504 0.57156777 -0.04188044 0.81948537 0.024864668
-0.060984705 -0.10255918 0.43592328 9273711 0.51294458 -0.048943035 0.85702533 0.026535885
-0.059618086 -0.10230131 0.43516058 9273711 0.42680845 -0.052137576 0.90283787 0.02882972
-0.058708545 -0.10233918 0.43473217 9273711 0.36278033 -0.052442107 0.93039793 0.029455915
-0.057238955 -0.10206833 0.43422446 9273711 0.24889019 -0.047268808 0.96737754 0.032177079
-0.05622828 -0.10208047 0.43399855 9273711 0.17006379 -0.03751082 0.98471886 0.032305684
-0.055178262 -0.10208395 0.43385056 9273711 0.087437175 -0.029005747 0.99574769 0.032721244
-0.054089542 -0.10208298 0.43378299 9207918 -0.0034061633 -0.024815205 0.99968624 0.032489665
-0.052961808 -0.10207746 0.43381223 9207405 -0.077536523 -0.0013468881 0.99698859 0.031229988
-0.051811244 -0.10207754 0.43392074 9273198 -0.15079637 0.020232452 0.98835778 0.028228372
-0.050649006 -0.10208558 0.43411243 9207405 -0.21936333 0.042318601 0.97472501 0.026010575
-0.063587636 -0.10192607 0.43777072 9273711 0.61995763 -0.033081766 0.78393757 0.023105569
-0.062277738 -0.101685 0.4368532 9273711 0.57899934 -0.050091825 0.81378782 0.025431322
-0.060956202 -0.10143764 0.43598077 9339504 0.51853257 -0.057480264 0.85312366 0.027695259
-0.059595305 -0.10118708 0.43521324 9273711 0.44153091 -0.056249097 0.89548117 0.030073974
-0.058683593 -0.10121833 0.4347783 9273711 0.36994112 -0.056202888 0.92735368 0.031213576
-0.057216916 -0.10095795 0.43427783 9273711 0.25759107 -0.046217211 0.96514809 0.032300059
-0.056215484 -0.10096979 0.43403009 9207918 0.17638777 -0.03856102 0.98356515 0.032721244
-0.055169187 -0.10097267 0.43386716 9207918 0.088243492 -0.033713255 0.99552828 0.032847147
-0.054082911 -0.1009692 0.43379119 9207918 0.013879264 -0.010225922 0.99985141 0.031748708
-0.052959681 -0.10096603 0.43380523 9207405 -0.074014053 0.00084961235 0.99725682 0.030121801
-0.051443435 -0.10078368 0.43387467 9273198 -0.14137532 0.048818078 0.98875165 0.025316048
-0.062240854 -0.10055803 0.43692446 9273711 0.59869033 -0.066137642 0.79824537 0.027695259
-0.060925949 -0.10031736 0.43604439 9339504 0.53373682 -0.061271682 0.84342802 0.029434619
-0.059573818 -0.10007431 0.43526751 9207918 0.44747615 -0.065684244 0.89188039 0.031265493
-0.05865908 -0.1000987 0.43482289 9207918 0.3799679 -0.05910185 0.92310959 0.032300059
-0.05721065 -0.09985318 0.43431354 9207918 0.26561329 -0.049370494 0.96281469 0.032721244
-0.056204565 -0.099860072 0.43405932 9207918 0.1913363 -0.028847691 0.9811005 0.032340772
-0.055161338 -0.099859841 0.43387878 9142125 0.10593833 -0.01983157 0.9941749 0.031748708
-0.054078035 -0.09985736 0.43379366 9207918 0.021400152 -0.0081882551 0.99973744 0.031229988
-0.052564543 -0.099663548 0.4337512 9207405 -0.065176472 0.031842921 0.99736553 0.027254675
-0.06136563 -0.099479035 0.4364081 9273711 0.56728888 -0.068200424 0.82068998 0.029434619
-0.060020134 -0.09922643 0.43557301 9207918 0.49117756 -0.065761469 0.86857355 0.031722885
-0.058630303 -0.098981827 0.43488595 9207918 0.39149594 -0.056366507 0.91845185 0.03242955
-0.057669785 -0.098989926 0.43450576 9207918 0.310004 -0.05637496 0.94906235 0.032721244
-0.05619958 -0.09875118 0.43407813 9142125 0.20020135 -0.0306968 0.9792738 0.031748708
-0.055154681 -0.098749325 0.43389449 9142125 0.11926254 -0.016224829 0.9927302 0.031324312
-0.054079622 -0.098743364 0.4337666 9142125 0.038723424 0.0033722355 0.99924427 0.029577743
